<svg xmlns="http://www.w3.org/2000/svg" width="256" height="256" viewBox="0 0 100 100"><rect width="100" height="100" rx="20" fill="#121212"></rect><path d="M25.87 77.16L24.71 27.30Q19.52 29.27 16.68 33.39Q13.83 37.52 13.83 43.50L13.83 43.50Q13.83 46.20 14.34 47.26Q14.85 48.32 14.85 48.47L14.85 48.47Q10.91 48.47 8.97 46.82Q7.04 45.18 7.04 41.39L7.04 41.39Q7.04 36.71 10.87 32.30Q14.70 27.88 20.69 25.14Q26.68 22.41 32.66 22.41L32.66 22.41Q33.68 22.41 35.58 22.55L35.58 22.55L36.24 67.45L51.57 22.77L56.68 22.77L36.39 77.16L25.87 77.16ZM60.26 77.59Q56.10 77.59 53.32 74.75Q50.55 71.90 50.55 65.84L50.55 65.84Q50.55 60.44 52.70 54.49Q54.85 48.54 59.13 44.42Q63.40 40.29 69.31 40.29L69.31 40.29Q72.30 40.29 73.76 41.31Q75.22 42.33 75.22 44.01L75.22 44.01L75.22 44.52L76.02 40.66L86.54 40.66L81.28 65.48Q80.99 66.57 80.99 67.81L80.99 67.81Q80.99 70.95 83.98 70.95L83.98 70.95Q86.03 70.95 87.52 69.05Q89.02 67.15 89.89 64.09L89.89 64.09L92.96 64.09Q90.26 71.97 86.28 74.78Q82.30 77.59 78.29 77.59L78.29 77.59Q75.22 77.59 73.36 75.88Q71.50 74.16 71.13 70.88L71.13 70.88Q69.02 73.87 66.42 75.73Q63.83 77.59 60.26 77.59L60.26 77.59ZM65.00 70.51Q66.83 70.51 68.61 68.80Q70.40 67.08 71.06 64.09L71.06 64.09L74.56 47.59Q74.56 46.64 73.83 45.73Q73.10 44.82 71.57 44.82L71.57 44.82Q68.65 44.82 66.32 48.21Q63.98 51.61 62.67 56.39Q61.35 61.17 61.35 64.82L61.35 64.82Q61.35 68.47 62.41 69.49Q63.47 70.51 65.00 70.51L65.00 70.51Z" fill="#fff"></path></svg>